<svg width="1408" height="85" viewBox="0 0 1408 85" fill="none" xmlns="http://www.w3.org/2000/svg">
<path d="M57.592 53.9369L51.7498 48.0957C51.4861 47.832 51.1286 47.6856 50.7536 47.6856H49.7985C51.4158 45.6174 52.3768 43.0161 52.3768 40.1863C52.3768 33.4545 46.9213 28 40.1884 28C33.4555 28 28 33.4545 28 40.1863C28 46.9181 33.4555 52.3726 40.1884 52.3726C43.0187 52.3726 45.6204 51.4118 47.6889 49.7947V50.7497C47.6889 51.1247 47.8354 51.4821 48.0991 51.7457L53.9414 57.587C54.4922 58.1377 55.3829 58.1377 55.9278 57.587L57.5862 55.9289C58.137 55.3782 58.137 54.4876 57.592 53.9369ZM40.1884 47.6856C36.0455 47.6856 32.6878 44.3343 32.6878 40.1863C32.6878 36.0441 36.0397 32.687 40.1884 32.687C44.3313 32.687 47.6889 36.0383 47.6889 40.1863C47.6889 44.3285 44.3371 47.6856 40.1884 47.6856Z" fill="#B8BCCC"/>
<rect x="1.5" y="1.5" width="1405" height="82" rx="8.5" stroke="#575A85" stroke-width="3"/>
<path d="M84.824 53.192C83.16 53.192 81.56 52.9253 80.024 52.392C78.5093 51.8373 77.336 51.1333 76.504 50.28L77.432 48.456C78.2213 49.224 79.2773 49.8747 80.6 50.408C81.944 50.92 83.352 51.176 84.824 51.176C86.232 51.176 87.3733 51.0053 88.248 50.664C89.144 50.3013 89.7947 49.8213 90.2 49.224C90.6267 48.6267 90.84 47.9653 90.84 47.24C90.84 46.3653 90.584 45.6613 90.072 45.128C89.5813 44.5947 88.9307 44.1787 88.12 43.88C87.3093 43.56 86.4133 43.2827 85.432 43.048C84.4507 42.8133 83.4693 42.568 82.488 42.312C81.5067 42.0347 80.6 41.672 79.768 41.224C78.9573 40.776 78.296 40.1893 77.784 39.464C77.2933 38.7173 77.048 37.7467 77.048 36.552C77.048 35.4427 77.336 34.4293 77.912 33.512C78.5093 32.5733 79.416 31.8267 80.632 31.272C81.848 30.696 83.4053 30.408 85.304 30.408C86.5627 30.408 87.8107 30.5893 89.048 30.952C90.2853 31.2933 91.352 31.7733 92.248 32.392L91.448 34.28C90.488 33.64 89.464 33.1707 88.376 32.872C87.3093 32.5733 86.2747 32.424 85.272 32.424C83.928 32.424 82.8187 32.6053 81.944 32.968C81.0693 33.3307 80.4187 33.8213 79.992 34.44C79.5867 35.0373 79.384 35.72 79.384 36.488C79.384 37.3627 79.6293 38.0667 80.12 38.6C80.632 39.1333 81.2933 39.5493 82.104 39.848C82.936 40.1467 83.8427 40.4133 84.824 40.648C85.8053 40.8827 86.776 41.1387 87.736 41.416C88.7173 41.6933 89.6133 42.056 90.424 42.504C91.256 42.9307 91.9173 43.5067 92.408 44.232C92.92 44.9573 93.176 45.9067 93.176 47.08C93.176 48.168 92.8773 49.1813 92.28 50.12C91.6827 51.0373 90.7653 51.784 89.528 52.36C88.312 52.9147 86.744 53.192 84.824 53.192ZM104.992 53.16C103.242 53.16 101.706 52.7973 100.384 52.072C99.0608 51.3253 98.0262 50.312 97.2795 49.032C96.5328 47.7307 96.1595 46.248 96.1595 44.584C96.1595 42.92 96.5115 41.448 97.2155 40.168C97.9408 38.888 98.9222 37.8853 100.16 37.16C101.418 36.4133 102.826 36.04 104.384 36.04C105.962 36.04 107.36 36.4027 108.576 37.128C109.813 37.832 110.784 38.8347 111.488 40.136C112.192 41.416 112.544 42.8987 112.544 44.584C112.544 44.6907 112.533 44.808 112.512 44.936C112.512 45.0427 112.512 45.16 112.512 45.288H97.8875V43.592H111.296L110.4 44.264C110.4 43.048 110.133 41.9707 109.6 41.032C109.088 40.072 108.384 39.3253 107.488 38.792C106.592 38.2587 105.557 37.992 104.384 37.992C103.232 37.992 102.197 38.2587 101.28 38.792C100.362 39.3253 99.6475 40.072 99.1355 41.032C98.6235 41.992 98.3675 43.0907 98.3675 44.328V44.68C98.3675 45.96 98.6448 47.0907 99.1995 48.072C99.7755 49.032 100.565 49.7893 101.568 50.344C102.592 50.8773 103.754 51.144 105.056 51.144C106.08 51.144 107.029 50.9627 107.904 50.6C108.8 50.2373 109.568 49.6827 110.208 48.936L111.488 50.408C110.741 51.304 109.802 51.9867 108.672 52.456C107.562 52.9253 106.336 53.16 104.992 53.16ZM127.227 53V49.288L127.131 48.68V42.472C127.131 41.0427 126.726 39.944 125.915 39.176C125.126 38.408 123.942 38.024 122.363 38.024C121.275 38.024 120.241 38.2053 119.259 38.568C118.278 38.9307 117.446 39.4107 116.763 40.008L115.739 38.312C116.593 37.5867 117.617 37.032 118.811 36.648C120.006 36.2427 121.265 36.04 122.587 36.04C124.763 36.04 126.438 36.584 127.611 37.672C128.806 38.7387 129.403 40.3707 129.403 42.568V53H127.227ZM121.435 53.16C120.177 53.16 119.078 52.9573 118.139 52.552C117.222 52.1253 116.518 51.5493 116.027 50.824C115.537 50.0773 115.291 49.224 115.291 48.264C115.291 47.3893 115.494 46.6 115.899 45.896C116.326 45.1707 117.009 44.5947 117.947 44.168C118.907 43.72 120.187 43.496 121.787 43.496H127.579V45.192H121.851C120.23 45.192 119.099 45.48 118.459 46.056C117.841 46.632 117.531 47.3467 117.531 48.2C117.531 49.16 117.905 49.928 118.651 50.504C119.398 51.08 120.443 51.368 121.787 51.368C123.067 51.368 124.166 51.08 125.083 50.504C126.022 49.9067 126.705 49.0533 127.131 47.944L127.643 49.512C127.217 50.6213 126.47 51.5067 125.403 52.168C124.358 52.8293 123.035 53.16 121.435 53.16ZM135.574 53V36.2H137.75V40.776L137.526 39.976C137.996 38.696 138.785 37.7253 139.894 37.064C141.004 36.3813 142.38 36.04 144.022 36.04V38.248C143.937 38.248 143.852 38.248 143.766 38.248C143.681 38.2267 143.596 38.216 143.51 38.216C141.74 38.216 140.353 38.76 139.35 39.848C138.348 40.9147 137.846 42.44 137.846 44.424V53H135.574ZM154.988 53.16C153.324 53.16 151.83 52.7973 150.508 52.072C149.206 51.3253 148.182 50.312 147.436 49.032C146.689 47.7307 146.316 46.248 146.316 44.584C146.316 42.8987 146.689 41.416 147.436 40.136C148.182 38.856 149.206 37.8533 150.508 37.128C151.83 36.4027 153.324 36.04 154.988 36.04C156.417 36.04 157.708 36.3173 158.86 36.872C160.012 37.4267 160.918 38.2587 161.58 39.368L159.884 40.52C159.308 39.6667 158.593 39.0373 157.74 38.632C156.886 38.2267 155.958 38.024 154.956 38.024C153.761 38.024 152.684 38.3013 151.724 38.856C150.764 39.3893 150.006 40.1467 149.452 41.128C148.897 42.1093 148.62 43.2613 148.62 44.584C148.62 45.9067 148.897 47.0587 149.452 48.04C150.006 49.0213 150.764 49.7893 151.724 50.344C152.684 50.8773 153.761 51.144 154.956 51.144C155.958 51.144 156.886 50.9413 157.74 50.536C158.593 50.1307 159.308 49.512 159.884 48.68L161.58 49.832C160.918 50.92 160.012 51.752 158.86 52.328C157.708 52.8827 156.417 53.16 154.988 53.16ZM174.369 36.04C175.734 36.04 176.929 36.3067 177.953 36.84C178.998 37.352 179.809 38.1413 180.385 39.208C180.982 40.2747 181.281 41.6187 181.281 43.24V53H179.009V43.464C179.009 41.6933 178.561 40.36 177.665 39.464C176.79 38.5467 175.553 38.088 173.953 38.088C172.758 38.088 171.713 38.3333 170.817 38.824C169.942 39.2933 169.26 39.9867 168.769 40.904C168.3 41.8 168.065 42.888 168.065 44.168V53H165.793V29.256H168.065V40.808L167.617 39.944C168.15 38.728 169.004 37.7787 170.177 37.096C171.35 36.392 172.748 36.04 174.369 36.04ZM196.273 53V30.6H205.937C208.433 30.6 210.364 31.1013 211.729 32.104C213.116 33.1067 213.809 34.5253 213.809 36.36C213.809 37.576 213.521 38.6 212.945 39.432C212.39 40.264 211.622 40.8933 210.641 41.32C209.681 41.7467 208.625 41.96 207.473 41.96L208.017 41.192C209.446 41.192 210.673 41.416 211.697 41.864C212.742 42.2907 213.553 42.9413 214.129 43.816C214.705 44.6693 214.993 45.736 214.993 47.016C214.993 48.9147 214.289 50.3867 212.881 51.432C211.494 52.4773 209.393 53 206.577 53H196.273ZM198.641 51.048H206.545C208.508 51.048 210.012 50.7173 211.057 50.056C212.102 49.3733 212.625 48.296 212.625 46.824C212.625 45.3733 212.102 44.3173 211.057 43.656C210.012 42.9733 208.508 42.632 206.545 42.632H198.385V40.68H205.777C207.569 40.68 208.956 40.3387 209.937 39.656C210.94 38.9733 211.441 37.96 211.441 36.616C211.441 35.2507 210.94 34.2373 209.937 33.576C208.956 32.8933 207.569 32.552 205.777 32.552H198.641V51.048ZM220.046 59.368C219.257 59.368 218.499 59.24 217.774 58.984C217.07 58.728 216.462 58.344 215.95 57.832L217.006 56.136C217.433 56.5413 217.891 56.8507 218.382 57.064C218.894 57.2987 219.459 57.416 220.078 57.416C220.825 57.416 221.465 57.2027 221.998 56.776C222.553 56.3707 223.075 55.6453 223.566 54.6L224.654 52.136L224.91 51.784L231.822 36.2H234.062L225.646 55.016C225.177 56.104 224.654 56.968 224.078 57.608C223.523 58.248 222.915 58.696 222.254 58.952C221.593 59.2293 220.857 59.368 220.046 59.368ZM224.526 53.48L216.782 36.2H219.15L225.998 51.624L224.526 53.48ZM246.117 53V30.6H248.069L263.525 50.056H262.501V30.6H264.837V53H262.885L247.461 33.544H248.485V53H246.117ZM282.196 53V49.288L282.1 48.68V42.472C282.1 41.0427 281.695 39.944 280.884 39.176C280.095 38.408 278.911 38.024 277.332 38.024C276.244 38.024 275.209 38.2053 274.228 38.568C273.247 38.9307 272.415 39.4107 271.732 40.008L270.708 38.312C271.561 37.5867 272.585 37.032 273.78 36.648C274.975 36.2427 276.233 36.04 277.556 36.04C279.732 36.04 281.407 36.584 282.58 37.672C283.775 38.7387 284.372 40.3707 284.372 42.568V53H282.196ZM276.404 53.16C275.145 53.16 274.047 52.9573 273.108 52.552C272.191 52.1253 271.487 51.5493 270.996 50.824C270.505 50.0773 270.26 49.224 270.26 48.264C270.26 47.3893 270.463 46.6 270.868 45.896C271.295 45.1707 271.977 44.5947 272.916 44.168C273.876 43.72 275.156 43.496 276.756 43.496H282.548V45.192H276.82C275.199 45.192 274.068 45.48 273.428 46.056C272.809 46.632 272.5 47.3467 272.5 48.2C272.5 49.16 272.873 49.928 273.62 50.504C274.367 51.08 275.412 51.368 276.756 51.368C278.036 51.368 279.135 51.08 280.052 50.504C280.991 49.9067 281.673 49.0533 282.1 47.944L282.612 49.512C282.185 50.6213 281.439 51.5067 280.372 52.168C279.327 52.8293 278.004 53.16 276.404 53.16ZM311.535 36.04C312.9 36.04 314.084 36.3067 315.087 36.84C316.111 37.352 316.9 38.1413 317.455 39.208C318.031 40.2747 318.319 41.6187 318.319 43.24V53H316.047V43.464C316.047 41.6933 315.62 40.36 314.767 39.464C313.935 38.5467 312.751 38.088 311.215 38.088C310.063 38.088 309.06 38.3333 308.207 38.824C307.375 39.2933 306.724 39.9867 306.255 40.904C305.807 41.8 305.583 42.888 305.583 44.168V53H303.311V43.464C303.311 41.6933 302.884 40.36 302.031 39.464C301.178 38.5467 299.983 38.088 298.447 38.088C297.316 38.088 296.324 38.3333 295.471 38.824C294.618 39.2933 293.956 39.9867 293.487 40.904C293.039 41.8 292.815 42.888 292.815 44.168V53H290.543V36.2H292.719V40.744L292.367 39.944C292.879 38.728 293.7 37.7787 294.831 37.096C295.983 36.392 297.338 36.04 298.895 36.04C300.538 36.04 301.935 36.456 303.087 37.288C304.239 38.0987 304.986 39.3253 305.327 40.968L304.431 40.616C304.922 39.2507 305.786 38.152 307.023 37.32C308.282 36.4667 309.786 36.04 311.535 36.04ZM331.617 53.16C329.867 53.16 328.331 52.7973 327.009 52.072C325.686 51.3253 324.651 50.312 323.905 49.032C323.158 47.7307 322.785 46.248 322.785 44.584C322.785 42.92 323.137 41.448 323.841 40.168C324.566 38.888 325.547 37.8853 326.785 37.16C328.043 36.4133 329.451 36.04 331.009 36.04C332.587 36.04 333.985 36.4027 335.201 37.128C336.438 37.832 337.409 38.8347 338.113 40.136C338.817 41.416 339.169 42.8987 339.169 44.584C339.169 44.6907 339.158 44.808 339.137 44.936C339.137 45.0427 339.137 45.16 339.137 45.288H324.513V43.592H337.921L337.025 44.264C337.025 43.048 336.758 41.9707 336.225 41.032C335.713 40.072 335.009 39.3253 334.113 38.792C333.217 38.2587 332.182 37.992 331.009 37.992C329.857 37.992 328.822 38.2587 327.905 38.792C326.987 39.3253 326.273 40.072 325.761 41.032C325.249 41.992 324.993 43.0907 324.993 44.328V44.68C324.993 45.96 325.27 47.0907 325.825 48.072C326.401 49.032 327.19 49.7893 328.193 50.344C329.217 50.8773 330.379 51.144 331.681 51.144C332.705 51.144 333.654 50.9627 334.529 50.6C335.425 50.2373 336.193 49.6827 336.833 48.936L338.113 50.408C337.366 51.304 336.427 51.9867 335.297 52.456C334.187 52.9253 332.961 53.16 331.617 53.16Z" fill="#B8BCCC"/>
</svg>
