<svg width="679" height="399" viewBox="0 0 679 399" fill="none" xmlns="http://www.w3.org/2000/svg">
<rect width="678.392" height="399" rx="10" fill="#575A85"/>
<path d="M50.3862 72V48.2H54.9422L68.9842 65.336H66.7742V48.2H72.2142V72H67.6922L53.6162 54.864H55.8262V72H50.3862ZM88.6912 72V68.43L88.3512 67.648V61.256C88.3512 60.1227 87.9999 59.2387 87.2972 58.604C86.6172 57.9693 85.5632 57.652 84.1352 57.652C83.1605 57.652 82.1972 57.8107 81.2452 58.128C80.3159 58.4227 79.5225 58.8307 78.8652 59.352L76.9612 55.646C77.9585 54.9433 79.1599 54.3993 80.5652 54.014C81.9705 53.6287 83.3985 53.436 84.8492 53.436C87.6372 53.436 89.8019 54.0933 91.3432 55.408C92.8845 56.7227 93.6552 58.774 93.6552 61.562V72H88.6912ZM83.1152 72.272C81.6872 72.272 80.4632 72.034 79.4432 71.558C78.4232 71.0593 77.6412 70.3907 77.0972 69.552C76.5532 68.7133 76.2812 67.7727 76.2812 66.73C76.2812 65.642 76.5419 64.69 77.0632 63.874C77.6072 63.058 78.4572 62.4233 79.6132 61.97C80.7692 61.494 82.2765 61.256 84.1352 61.256H88.9972V64.35H84.7132C83.4665 64.35 82.6052 64.554 82.1292 64.962C81.6759 65.37 81.4492 65.88 81.4492 66.492C81.4492 67.172 81.7099 67.716 82.2312 68.124C82.7752 68.5093 83.5119 68.702 84.4412 68.702C85.3252 68.702 86.1185 68.498 86.8212 68.09C87.5239 67.6593 88.0339 67.036 88.3512 66.22L89.1672 68.668C88.7819 69.8467 88.0792 70.742 87.0592 71.354C86.0392 71.966 84.7245 72.272 83.1152 72.272ZM121.882 53.436C123.332 53.436 124.613 53.7307 125.724 54.32C126.857 54.8867 127.741 55.7707 128.376 56.972C129.033 58.1507 129.362 59.6693 129.362 61.528V72H124.058V62.344C124.058 60.8707 123.752 59.7827 123.14 59.08C122.528 58.3773 121.666 58.026 120.556 58.026C119.785 58.026 119.094 58.2073 118.482 58.57C117.87 58.91 117.394 59.4313 117.054 60.134C116.714 60.8367 116.544 61.732 116.544 62.82V72H111.24V62.344C111.24 60.8707 110.934 59.7827 110.322 59.08C109.732 58.3773 108.882 58.026 107.772 58.026C107.001 58.026 106.31 58.2073 105.698 58.57C105.086 58.91 104.61 59.4313 104.27 60.134C103.93 60.8367 103.76 61.732 103.76 62.82V72H98.4556V53.708H103.522V58.706L102.57 57.244C103.204 55.9973 104.1 55.0567 105.256 54.422C106.434 53.7647 107.772 53.436 109.268 53.436C110.945 53.436 112.407 53.8667 113.654 54.728C114.923 55.5667 115.762 56.8587 116.17 58.604L114.3 58.094C114.912 56.666 115.886 55.5327 117.224 54.694C118.584 53.8553 120.136 53.436 121.882 53.436ZM143.327 72.272C141.241 72.272 139.405 71.864 137.819 71.048C136.255 70.232 135.042 69.1213 134.181 67.716C133.319 66.288 132.889 64.6673 132.889 62.854C132.889 61.018 133.308 59.3973 134.147 57.992C135.008 56.564 136.175 55.4533 137.649 54.66C139.122 53.844 140.788 53.436 142.647 53.436C144.437 53.436 146.047 53.8213 147.475 54.592C148.925 55.34 150.07 56.428 150.909 57.856C151.747 59.2613 152.167 60.95 152.167 62.922C152.167 63.126 152.155 63.364 152.133 63.636C152.11 63.8853 152.087 64.1233 152.065 64.35H137.207V61.256H149.277L147.237 62.174C147.237 61.222 147.044 60.3947 146.659 59.692C146.273 58.9893 145.741 58.4453 145.061 58.06C144.381 57.652 143.587 57.448 142.681 57.448C141.774 57.448 140.969 57.652 140.267 58.06C139.587 58.4453 139.054 59.0007 138.669 59.726C138.283 60.4287 138.091 61.2673 138.091 62.242V63.058C138.091 64.0553 138.306 64.9393 138.737 65.71C139.19 66.458 139.813 67.036 140.607 67.444C141.423 67.8293 142.375 68.022 143.463 68.022C144.437 68.022 145.287 67.8747 146.013 67.58C146.761 67.2853 147.441 66.8433 148.053 66.254L150.875 69.314C150.036 70.266 148.982 71.0027 147.713 71.524C146.443 72.0227 144.981 72.272 143.327 72.272Z" fill="#B8BCCC"/>
<path d="M51.5743 142V118.2H63.2023C66.1943 118.2 68.4383 118.767 69.9343 119.9C71.453 121.033 72.2123 122.529 72.2123 124.388C72.2123 125.635 71.9063 126.723 71.2943 127.652C70.6823 128.559 69.8437 129.261 68.7783 129.76C67.713 130.259 66.489 130.508 65.1063 130.508L65.7523 129.114C67.2483 129.114 68.5743 129.363 69.7303 129.862C70.8863 130.338 71.7817 131.052 72.4163 132.004C73.0737 132.956 73.4023 134.123 73.4023 135.506C73.4023 137.546 72.5977 139.144 70.9883 140.3C69.379 141.433 67.0103 142 63.8823 142H51.5743ZM57.0483 137.852H63.4743C64.9023 137.852 65.979 137.625 66.7043 137.172C67.4523 136.696 67.8263 135.948 67.8263 134.928C67.8263 133.931 67.4523 133.194 66.7043 132.718C65.979 132.219 64.9023 131.97 63.4743 131.97H56.6403V127.958H62.5223C63.8597 127.958 64.8797 127.731 65.5823 127.278C66.3077 126.802 66.6703 126.088 66.6703 125.136C66.6703 124.207 66.3077 123.515 65.5823 123.062C64.8797 122.586 63.8597 122.348 62.5223 122.348H57.0483V137.852ZM77.1984 142V123.708H82.2644V128.876L81.5504 127.38C82.0944 126.088 82.967 125.113 84.1684 124.456C85.3697 123.776 86.8317 123.436 88.5544 123.436V128.332C88.3277 128.309 88.1237 128.298 87.9424 128.298C87.761 128.275 87.5684 128.264 87.3644 128.264C85.9137 128.264 84.735 128.683 83.8284 129.522C82.9444 130.338 82.5024 131.619 82.5024 133.364V142H77.1984ZM101.733 142V138.43L101.393 137.648V131.256C101.393 130.123 101.041 129.239 100.339 128.604C99.6588 127.969 98.6048 127.652 97.1768 127.652C96.2022 127.652 95.2388 127.811 94.2868 128.128C93.3575 128.423 92.5642 128.831 91.9068 129.352L90.0028 125.646C91.0002 124.943 92.2015 124.399 93.6068 124.014C95.0122 123.629 96.4402 123.436 97.8908 123.436C100.679 123.436 102.843 124.093 104.385 125.408C105.926 126.723 106.697 128.774 106.697 131.562V142H101.733ZM96.1568 142.272C94.7288 142.272 93.5048 142.034 92.4848 141.558C91.4648 141.059 90.6828 140.391 90.1388 139.552C89.5948 138.713 89.3228 137.773 89.3228 136.73C89.3228 135.642 89.5835 134.69 90.1048 133.874C90.6488 133.058 91.4988 132.423 92.6548 131.97C93.8108 131.494 95.3182 131.256 97.1768 131.256H102.039V134.35H97.7548C96.5082 134.35 95.6468 134.554 95.1708 134.962C94.7175 135.37 94.4908 135.88 94.4908 136.492C94.4908 137.172 94.7515 137.716 95.2728 138.124C95.8168 138.509 96.5535 138.702 97.4828 138.702C98.3668 138.702 99.1602 138.498 99.8628 138.09C100.565 137.659 101.075 137.036 101.393 136.22L102.209 138.668C101.823 139.847 101.121 140.742 100.101 141.354C99.0808 141.966 97.7662 142.272 96.1568 142.272ZM122.615 123.436C124.066 123.436 125.358 123.731 126.491 124.32C127.647 124.887 128.554 125.771 129.211 126.972C129.869 128.151 130.197 129.669 130.197 131.528V142H124.893V132.344C124.893 130.871 124.565 129.783 123.907 129.08C123.273 128.377 122.366 128.026 121.187 128.026C120.349 128.026 119.589 128.207 118.909 128.57C118.252 128.91 117.731 129.443 117.345 130.168C116.983 130.893 116.801 131.823 116.801 132.956V142H111.497V123.708H116.563V128.774L115.611 127.244C116.269 126.02 117.209 125.079 118.433 124.422C119.657 123.765 121.051 123.436 122.615 123.436ZM143.978 142.272C142.006 142.272 140.249 141.875 138.708 141.082C137.166 140.266 135.954 139.144 135.07 137.716C134.208 136.288 133.778 134.667 133.778 132.854C133.778 131.018 134.208 129.397 135.07 127.992C135.954 126.564 137.166 125.453 138.708 124.66C140.249 123.844 142.006 123.436 143.978 123.436C145.904 123.436 147.582 123.844 149.01 124.66C150.438 125.453 151.492 126.598 152.172 128.094L148.058 130.304C147.582 129.443 146.981 128.808 146.256 128.4C145.553 127.992 144.782 127.788 143.944 127.788C143.037 127.788 142.221 127.992 141.496 128.4C140.77 128.808 140.192 129.386 139.762 130.134C139.354 130.882 139.15 131.789 139.15 132.854C139.15 133.919 139.354 134.826 139.762 135.574C140.192 136.322 140.77 136.9 141.496 137.308C142.221 137.716 143.037 137.92 143.944 137.92C144.782 137.92 145.553 137.727 146.256 137.342C146.981 136.934 147.582 136.288 148.058 135.404L152.172 137.648C151.492 139.121 150.438 140.266 149.01 141.082C147.582 141.875 145.904 142.272 143.978 142.272ZM166.244 123.436C167.695 123.436 168.987 123.731 170.12 124.32C171.276 124.887 172.183 125.771 172.84 126.972C173.497 128.151 173.826 129.669 173.826 131.528V142H168.522V132.344C168.522 130.871 168.193 129.783 167.536 129.08C166.901 128.377 165.995 128.026 164.816 128.026C163.977 128.026 163.218 128.207 162.538 128.57C161.881 128.91 161.359 129.443 160.974 130.168C160.611 130.893 160.43 131.823 160.43 132.956V142H155.126V116.772H160.43V128.774L159.24 127.244C159.897 126.02 160.838 125.079 162.062 124.422C163.286 123.765 164.68 123.436 166.244 123.436ZM193.567 142V122.688H185.951V118.2H206.691V122.688H199.075V142H193.567ZM210.497 148.868C209.545 148.868 208.604 148.721 207.675 148.426C206.745 148.131 205.986 147.723 205.397 147.202L207.335 143.428C207.743 143.791 208.207 144.074 208.729 144.278C209.273 144.482 209.805 144.584 210.327 144.584C211.075 144.584 211.664 144.403 212.095 144.04C212.548 143.7 212.956 143.122 213.319 142.306L214.271 140.062L214.679 139.484L221.241 123.708H226.341L218.079 143.122C217.489 144.595 216.809 145.751 216.039 146.59C215.291 147.429 214.452 148.018 213.523 148.358C212.616 148.698 211.607 148.868 210.497 148.868ZM213.625 142.714L205.465 123.708H210.939L217.263 139.008L213.625 142.714ZM239.317 142.272C237.776 142.272 236.427 141.932 235.271 141.252C234.115 140.572 233.208 139.541 232.551 138.158C231.916 136.753 231.599 134.985 231.599 132.854C231.599 130.701 231.905 128.933 232.517 127.55C233.129 126.167 234.013 125.136 235.169 124.456C236.325 123.776 237.708 123.436 239.317 123.436C241.04 123.436 242.581 123.833 243.941 124.626C245.324 125.397 246.412 126.485 247.205 127.89C248.021 129.295 248.429 130.95 248.429 132.854C248.429 134.781 248.021 136.447 247.205 137.852C246.412 139.257 245.324 140.345 243.941 141.116C242.581 141.887 241.04 142.272 239.317 142.272ZM228.505 148.596V123.708H233.571V127.448L233.469 132.888L233.809 138.294V148.596H228.505ZM238.399 137.92C239.283 137.92 240.065 137.716 240.745 137.308C241.448 136.9 242.003 136.322 242.411 135.574C242.842 134.803 243.057 133.897 243.057 132.854C243.057 131.789 242.842 130.882 242.411 130.134C242.003 129.386 241.448 128.808 240.745 128.4C240.065 127.992 239.283 127.788 238.399 127.788C237.515 127.788 236.722 127.992 236.019 128.4C235.316 128.808 234.761 129.386 234.353 130.134C233.945 130.882 233.741 131.789 233.741 132.854C233.741 133.897 233.945 134.803 234.353 135.574C234.761 136.322 235.316 136.9 236.019 137.308C236.722 137.716 237.515 137.92 238.399 137.92ZM261.058 142.272C258.972 142.272 257.136 141.864 255.55 141.048C253.986 140.232 252.773 139.121 251.912 137.716C251.05 136.288 250.62 134.667 250.62 132.854C250.62 131.018 251.039 129.397 251.878 127.992C252.739 126.564 253.906 125.453 255.38 124.66C256.853 123.844 258.519 123.436 260.378 123.436C262.168 123.436 263.778 123.821 265.206 124.592C266.656 125.34 267.801 126.428 268.64 127.856C269.478 129.261 269.898 130.95 269.898 132.922C269.898 133.126 269.886 133.364 269.864 133.636C269.841 133.885 269.818 134.123 269.796 134.35H254.938V131.256H267.008L264.968 132.174C264.968 131.222 264.775 130.395 264.39 129.692C264.004 128.989 263.472 128.445 262.792 128.06C262.112 127.652 261.318 127.448 260.412 127.448C259.505 127.448 258.7 127.652 257.998 128.06C257.318 128.445 256.785 129.001 256.4 129.726C256.014 130.429 255.822 131.267 255.822 132.242V133.058C255.822 134.055 256.037 134.939 256.468 135.71C256.921 136.458 257.544 137.036 258.338 137.444C259.154 137.829 260.106 138.022 261.194 138.022C262.168 138.022 263.018 137.875 263.744 137.58C264.492 137.285 265.172 136.843 265.784 136.254L268.606 139.314C267.767 140.266 266.713 141.003 265.444 141.524C264.174 142.023 262.712 142.272 261.058 142.272Z" fill="#B8BCCC"/>
<path d="M51.5743 212V188.2H62.3863C64.9703 188.2 67.2483 188.699 69.2203 189.696C71.1923 190.671 72.7337 192.042 73.8443 193.81C74.955 195.578 75.5103 197.675 75.5103 200.1C75.5103 202.503 74.955 204.599 73.8443 206.39C72.7337 208.158 71.1923 209.541 69.2203 210.538C67.2483 211.513 64.9703 212 62.3863 212H51.5743ZM57.0823 207.478H62.1143C63.701 207.478 65.0723 207.183 66.2283 206.594C67.407 205.982 68.3137 205.121 68.9483 204.01C69.6057 202.899 69.9343 201.596 69.9343 200.1C69.9343 198.581 69.6057 197.278 68.9483 196.19C68.3137 195.079 67.407 194.229 66.2283 193.64C65.0723 193.028 63.701 192.722 62.1143 192.722H57.0823V207.478ZM88.3682 212.272C86.2828 212.272 84.4468 211.864 82.8602 211.048C81.2962 210.232 80.0835 209.121 79.2222 207.716C78.3608 206.288 77.9302 204.667 77.9302 202.854C77.9302 201.018 78.3495 199.397 79.1882 197.992C80.0495 196.564 81.2168 195.453 82.6902 194.66C84.1635 193.844 85.8295 193.436 87.6882 193.436C89.4788 193.436 91.0882 193.821 92.5162 194.592C93.9668 195.34 95.1115 196.428 95.9502 197.856C96.7888 199.261 97.2082 200.95 97.2082 202.922C97.2082 203.126 97.1968 203.364 97.1742 203.636C97.1515 203.885 97.1288 204.123 97.1062 204.35H82.2482V201.256H94.3182L92.2782 202.174C92.2782 201.222 92.0855 200.395 91.7002 199.692C91.3148 198.989 90.7822 198.445 90.1022 198.06C89.4222 197.652 88.6288 197.448 87.7222 197.448C86.8155 197.448 86.0108 197.652 85.3082 198.06C84.6282 198.445 84.0955 199.001 83.7102 199.726C83.3248 200.429 83.1322 201.267 83.1322 202.242V203.058C83.1322 204.055 83.3475 204.939 83.7782 205.71C84.2315 206.458 84.8548 207.036 85.6482 207.444C86.4642 207.829 87.4162 208.022 88.5042 208.022C89.4788 208.022 90.3288 207.875 91.0542 207.58C91.8022 207.285 92.4822 206.843 93.0942 206.254L95.9162 209.314C95.0775 210.266 94.0235 211.003 92.7542 211.524C91.4848 212.023 90.0228 212.272 88.3682 212.272ZM100.739 212V186.772H106.043V212H100.739ZM110.966 212V193.708H116.27V212H110.966ZM113.618 191.158C112.643 191.158 111.85 190.875 111.238 190.308C110.626 189.741 110.32 189.039 110.32 188.2C110.32 187.361 110.626 186.659 111.238 186.092C111.85 185.525 112.643 185.242 113.618 185.242C114.593 185.242 115.386 185.514 115.998 186.058C116.61 186.579 116.916 187.259 116.916 188.098C116.916 188.982 116.61 189.719 115.998 190.308C115.409 190.875 114.615 191.158 113.618 191.158ZM126.157 212L118.473 193.708H123.947L130.339 209.45H127.619L134.249 193.708H139.349L131.631 212H126.157ZM150.093 212.272C148.007 212.272 146.171 211.864 144.585 211.048C143.021 210.232 141.808 209.121 140.947 207.716C140.085 206.288 139.655 204.667 139.655 202.854C139.655 201.018 140.074 199.397 140.913 197.992C141.774 196.564 142.941 195.453 144.415 194.66C145.888 193.844 147.554 193.436 149.413 193.436C151.203 193.436 152.813 193.821 154.241 194.592C155.691 195.34 156.836 196.428 157.675 197.856C158.513 199.261 158.933 200.95 158.933 202.922C158.933 203.126 158.921 203.364 158.899 203.636C158.876 203.885 158.853 204.123 158.831 204.35H143.973V201.256H156.043L154.003 202.174C154.003 201.222 153.81 200.395 153.425 199.692C153.039 198.989 152.507 198.445 151.827 198.06C151.147 197.652 150.353 197.448 149.447 197.448C148.54 197.448 147.735 197.652 147.033 198.06C146.353 198.445 145.82 199.001 145.435 199.726C145.049 200.429 144.857 201.267 144.857 202.242V203.058C144.857 204.055 145.072 204.939 145.503 205.71C145.956 206.458 146.579 207.036 147.373 207.444C148.189 207.829 149.141 208.022 150.229 208.022C151.203 208.022 152.053 207.875 152.779 207.58C153.527 207.285 154.207 206.843 154.819 206.254L157.641 209.314C156.802 210.266 155.748 211.003 154.479 211.524C153.209 212.023 151.747 212.272 150.093 212.272ZM162.464 212V193.708H167.53V198.876L166.816 197.38C167.36 196.088 168.233 195.113 169.434 194.456C170.635 193.776 172.097 193.436 173.82 193.436V198.332C173.593 198.309 173.389 198.298 173.208 198.298C173.027 198.275 172.834 198.264 172.63 198.264C171.179 198.264 170.001 198.683 169.094 199.522C168.21 200.338 167.768 201.619 167.768 203.364V212H162.464ZM179.917 218.868C178.965 218.868 178.024 218.721 177.095 218.426C176.165 218.131 175.406 217.723 174.817 217.202L176.755 213.428C177.163 213.791 177.627 214.074 178.149 214.278C178.693 214.482 179.225 214.584 179.747 214.584C180.495 214.584 181.084 214.403 181.515 214.04C181.968 213.7 182.376 213.122 182.739 212.306L183.691 210.062L184.099 209.484L190.661 193.708H195.761L187.499 213.122C186.909 214.595 186.229 215.751 185.459 216.59C184.711 217.429 183.872 218.018 182.943 218.358C182.036 218.698 181.027 218.868 179.917 218.868ZM183.045 212.714L174.885 193.708H180.359L186.683 209.008L183.045 212.714ZM215.748 212.408C213.844 212.408 212.019 212.159 210.274 211.66C208.529 211.139 207.123 210.47 206.058 209.654L207.928 205.506C208.948 206.231 210.149 206.832 211.532 207.308C212.937 207.761 214.354 207.988 215.782 207.988C216.87 207.988 217.743 207.886 218.4 207.682C219.08 207.455 219.579 207.149 219.896 206.764C220.213 206.379 220.372 205.937 220.372 205.438C220.372 204.803 220.123 204.305 219.624 203.942C219.125 203.557 218.468 203.251 217.652 203.024C216.836 202.775 215.929 202.548 214.932 202.344C213.957 202.117 212.971 201.845 211.974 201.528C210.999 201.211 210.104 200.803 209.288 200.304C208.472 199.805 207.803 199.148 207.282 198.332C206.783 197.516 206.534 196.473 206.534 195.204C206.534 193.844 206.897 192.609 207.622 191.498C208.37 190.365 209.481 189.469 210.954 188.812C212.45 188.132 214.32 187.792 216.564 187.792C218.06 187.792 219.533 187.973 220.984 188.336C222.435 188.676 223.715 189.197 224.826 189.9L223.126 194.082C222.015 193.447 220.905 192.983 219.794 192.688C218.683 192.371 217.595 192.212 216.53 192.212C215.465 192.212 214.592 192.337 213.912 192.586C213.232 192.835 212.745 193.164 212.45 193.572C212.155 193.957 212.008 194.411 212.008 194.932C212.008 195.544 212.257 196.043 212.756 196.428C213.255 196.791 213.912 197.085 214.728 197.312C215.544 197.539 216.439 197.765 217.414 197.992C218.411 198.219 219.397 198.479 220.372 198.774C221.369 199.069 222.276 199.465 223.092 199.964C223.908 200.463 224.565 201.12 225.064 201.936C225.585 202.752 225.846 203.783 225.846 205.03C225.846 206.367 225.472 207.591 224.724 208.702C223.976 209.813 222.854 210.708 221.358 211.388C219.885 212.068 218.015 212.408 215.748 212.408ZM236.715 212.272C234.562 212.272 232.885 211.728 231.683 210.64C230.482 209.529 229.881 207.886 229.881 205.71V189.662H235.185V205.642C235.185 206.413 235.389 207.013 235.797 207.444C236.205 207.852 236.761 208.056 237.463 208.056C238.302 208.056 239.016 207.829 239.605 207.376L241.033 211.116C240.489 211.501 239.832 211.796 239.061 212C238.313 212.181 237.531 212.272 236.715 212.272ZM227.059 198.196V194.116H239.741V198.196H227.059ZM255.231 212V208.43L254.891 207.648V201.256C254.891 200.123 254.54 199.239 253.837 198.604C253.157 197.969 252.103 197.652 250.675 197.652C249.7 197.652 248.737 197.811 247.785 198.128C246.856 198.423 246.062 198.831 245.405 199.352L243.501 195.646C244.498 194.943 245.7 194.399 247.105 194.014C248.51 193.629 249.938 193.436 251.389 193.436C254.177 193.436 256.342 194.093 257.883 195.408C259.424 196.723 260.195 198.774 260.195 201.562V212H255.231ZM249.655 212.272C248.227 212.272 247.003 212.034 245.983 211.558C244.963 211.059 244.181 210.391 243.637 209.552C243.093 208.713 242.821 207.773 242.821 206.73C242.821 205.642 243.082 204.69 243.603 203.874C244.147 203.058 244.997 202.423 246.153 201.97C247.309 201.494 248.816 201.256 250.675 201.256H255.537V204.35H251.253C250.006 204.35 249.145 204.554 248.669 204.962C248.216 205.37 247.989 205.88 247.989 206.492C247.989 207.172 248.25 207.716 248.771 208.124C249.315 208.509 250.052 208.702 250.981 208.702C251.865 208.702 252.658 208.498 253.361 208.09C254.064 207.659 254.574 207.036 254.891 206.22L255.707 208.668C255.322 209.847 254.619 210.742 253.599 211.354C252.579 211.966 251.264 212.272 249.655 212.272ZM272.475 212.272C270.322 212.272 268.645 211.728 267.443 210.64C266.242 209.529 265.641 207.886 265.641 205.71V189.662H270.945V205.642C270.945 206.413 271.149 207.013 271.557 207.444C271.965 207.852 272.521 208.056 273.223 208.056C274.062 208.056 274.776 207.829 275.365 207.376L276.793 211.116C276.249 211.501 275.592 211.796 274.821 212C274.073 212.181 273.291 212.272 272.475 212.272ZM262.819 198.196V194.116H275.501V198.196H262.819ZM287.489 212.272C285.97 212.272 284.61 211.977 283.409 211.388C282.23 210.799 281.312 209.903 280.655 208.702C279.997 207.478 279.669 205.925 279.669 204.044V193.708H284.973V203.262C284.973 204.781 285.29 205.903 285.925 206.628C286.582 207.331 287.5 207.682 288.679 207.682C289.495 207.682 290.22 207.512 290.855 207.172C291.489 206.809 291.988 206.265 292.351 205.54C292.713 204.792 292.895 203.863 292.895 202.752V193.708H298.199V212H293.167V206.968L294.085 208.43C293.473 209.699 292.566 210.663 291.365 211.32C290.186 211.955 288.894 212.272 287.489 212.272ZM309.266 212.272C307.702 212.272 306.195 212.091 304.744 211.728C303.316 211.343 302.183 210.867 301.344 210.3L303.112 206.492C303.951 207.013 304.937 207.444 306.07 207.784C307.226 208.101 308.36 208.26 309.47 208.26C310.694 208.26 311.556 208.113 312.054 207.818C312.576 207.523 312.836 207.115 312.836 206.594C312.836 206.163 312.632 205.846 312.224 205.642C311.839 205.415 311.318 205.245 310.66 205.132C310.003 205.019 309.278 204.905 308.484 204.792C307.714 204.679 306.932 204.531 306.138 204.35C305.345 204.146 304.62 203.851 303.962 203.466C303.305 203.081 302.772 202.559 302.364 201.902C301.979 201.245 301.786 200.395 301.786 199.352C301.786 198.196 302.115 197.176 302.772 196.292C303.452 195.408 304.427 194.717 305.696 194.218C306.966 193.697 308.484 193.436 310.252 193.436C311.499 193.436 312.768 193.572 314.06 193.844C315.352 194.116 316.429 194.513 317.29 195.034L315.522 198.808C314.638 198.287 313.743 197.935 312.836 197.754C311.952 197.55 311.091 197.448 310.252 197.448C309.074 197.448 308.212 197.607 307.668 197.924C307.124 198.241 306.852 198.649 306.852 199.148C306.852 199.601 307.045 199.941 307.43 200.168C307.838 200.395 308.371 200.576 309.028 200.712C309.686 200.848 310.4 200.973 311.17 201.086C311.964 201.177 312.757 201.324 313.55 201.528C314.344 201.732 315.058 202.027 315.692 202.412C316.35 202.775 316.882 203.285 317.29 203.942C317.698 204.577 317.902 205.415 317.902 206.458C317.902 207.591 317.562 208.6 316.882 209.484C316.202 210.345 315.216 211.025 313.924 211.524C312.655 212.023 311.102 212.272 309.266 212.272Z" fill="#B8BCCC"/>
<path d="M51.5743 282V258.2H62.3863C64.9703 258.2 67.2483 258.699 69.2203 259.696C71.1923 260.671 72.7337 262.042 73.8443 263.81C74.955 265.578 75.5103 267.675 75.5103 270.1C75.5103 272.503 74.955 274.599 73.8443 276.39C72.7337 278.158 71.1923 279.541 69.2203 280.538C67.2483 281.513 64.9703 282 62.3863 282H51.5743ZM57.0823 277.478H62.1143C63.701 277.478 65.0723 277.183 66.2283 276.594C67.407 275.982 68.3137 275.121 68.9483 274.01C69.6057 272.899 69.9343 271.596 69.9343 270.1C69.9343 268.581 69.6057 267.278 68.9483 266.19C68.3137 265.079 67.407 264.229 66.2283 263.64C65.0723 263.028 63.701 262.722 62.1143 262.722H57.0823V277.478ZM79.2902 282V263.708H84.5942V282H79.2902ZM81.9422 261.158C80.9675 261.158 80.1742 260.875 79.5622 260.308C78.9502 259.741 78.6442 259.039 78.6442 258.2C78.6442 257.361 78.9502 256.659 79.5622 256.092C80.1742 255.525 80.9675 255.242 81.9422 255.242C82.9168 255.242 83.7102 255.514 84.3222 256.058C84.9342 256.579 85.2402 257.259 85.2402 258.098C85.2402 258.982 84.9342 259.719 84.3222 260.308C83.7328 260.875 82.9395 261.158 81.9422 261.158ZM95.6707 282.272C94.1067 282.272 92.5994 282.091 91.1487 281.728C89.7207 281.343 88.5874 280.867 87.7487 280.3L89.5167 276.492C90.3554 277.013 91.3414 277.444 92.4747 277.784C93.6307 278.101 94.7641 278.26 95.8747 278.26C97.0987 278.26 97.9601 278.113 98.4587 277.818C98.9801 277.523 99.2407 277.115 99.2407 276.594C99.2407 276.163 99.0367 275.846 98.6287 275.642C98.2434 275.415 97.7221 275.245 97.0647 275.132C96.4074 275.019 95.6821 274.905 94.8887 274.792C94.1181 274.679 93.3361 274.531 92.5427 274.35C91.7494 274.146 91.0241 273.851 90.3667 273.466C89.7094 273.081 89.1767 272.559 88.7687 271.902C88.3834 271.245 88.1907 270.395 88.1907 269.352C88.1907 268.196 88.5194 267.176 89.1767 266.292C89.8567 265.408 90.8314 264.717 92.1007 264.218C93.3701 263.697 94.8887 263.436 96.6567 263.436C97.9034 263.436 99.1727 263.572 100.465 263.844C101.757 264.116 102.833 264.513 103.695 265.034L101.927 268.808C101.043 268.287 100.147 267.935 99.2407 267.754C98.3567 267.55 97.4954 267.448 96.6567 267.448C95.4781 267.448 94.6167 267.607 94.0727 267.924C93.5287 268.241 93.2567 268.649 93.2567 269.148C93.2567 269.601 93.4494 269.941 93.8347 270.168C94.2427 270.395 94.7754 270.576 95.4327 270.712C96.0901 270.848 96.8041 270.973 97.5747 271.086C98.3681 271.177 99.1614 271.324 99.9547 271.528C100.748 271.732 101.462 272.027 102.097 272.412C102.754 272.775 103.287 273.285 103.695 273.942C104.103 274.577 104.307 275.415 104.307 276.458C104.307 277.591 103.967 278.6 103.287 279.484C102.607 280.345 101.621 281.025 100.329 281.524C99.0594 282.023 97.5067 282.272 95.6707 282.272ZM115.059 282.272C112.906 282.272 111.229 281.728 110.027 280.64C108.826 279.529 108.225 277.886 108.225 275.71V259.662H113.529V275.642C113.529 276.413 113.733 277.013 114.141 277.444C114.549 277.852 115.105 278.056 115.807 278.056C116.646 278.056 117.36 277.829 117.949 277.376L119.377 281.116C118.833 281.501 118.176 281.796 117.405 282C116.657 282.181 115.875 282.272 115.059 282.272ZM105.403 268.196V264.116H118.085V268.196H105.403ZM122.355 282V263.708H127.421V268.876L126.707 267.38C127.251 266.088 128.123 265.113 129.325 264.456C130.526 263.776 131.988 263.436 133.711 263.436V268.332C133.484 268.309 133.28 268.298 133.099 268.298C132.917 268.275 132.725 268.264 132.521 268.264C131.07 268.264 129.891 268.683 128.985 269.522C128.101 270.338 127.659 271.619 127.659 273.364V282H122.355ZM136.898 282V263.708H142.202V282H136.898ZM139.55 261.158C138.575 261.158 137.782 260.875 137.17 260.308C136.558 259.741 136.252 259.039 136.252 258.2C136.252 257.361 136.558 256.659 137.17 256.092C137.782 255.525 138.575 255.242 139.55 255.242C140.524 255.242 141.318 255.514 141.93 256.058C142.542 256.579 142.848 257.259 142.848 258.098C142.848 258.982 142.542 259.719 141.93 260.308C141.34 260.875 140.547 261.158 139.55 261.158ZM155.964 282.272C153.992 282.272 152.235 281.875 150.694 281.082C149.153 280.266 147.94 279.144 147.056 277.716C146.195 276.288 145.764 274.667 145.764 272.854C145.764 271.018 146.195 269.397 147.056 267.992C147.94 266.564 149.153 265.453 150.694 264.66C152.235 263.844 153.992 263.436 155.964 263.436C157.891 263.436 159.568 263.844 160.996 264.66C162.424 265.453 163.478 266.598 164.158 268.094L160.044 270.304C159.568 269.443 158.967 268.808 158.242 268.4C157.539 267.992 156.769 267.788 155.93 267.788C155.023 267.788 154.207 267.992 153.482 268.4C152.757 268.808 152.179 269.386 151.748 270.134C151.34 270.882 151.136 271.789 151.136 272.854C151.136 273.919 151.34 274.826 151.748 275.574C152.179 276.322 152.757 276.9 153.482 277.308C154.207 277.716 155.023 277.92 155.93 277.92C156.769 277.92 157.539 277.727 158.242 277.342C158.967 276.934 159.568 276.288 160.044 275.404L164.158 277.648C163.478 279.121 162.424 280.266 160.996 281.082C159.568 281.875 157.891 282.272 155.964 282.272ZM174.958 282.272C172.804 282.272 171.127 281.728 169.926 280.64C168.724 279.529 168.124 277.886 168.124 275.71V259.662H173.428V275.642C173.428 276.413 173.632 277.013 174.04 277.444C174.448 277.852 175.003 278.056 175.706 278.056C176.544 278.056 177.258 277.829 177.848 277.376L179.276 281.116C178.732 281.501 178.074 281.796 177.304 282C176.556 282.181 175.774 282.272 174.958 282.272ZM165.302 268.196V264.116H177.984V268.196H165.302Z" fill="#B8BCCC"/>
<path d="M46.822 352V328.2H57.634C60.218 328.2 62.496 328.699 64.468 329.696C66.44 330.671 67.9813 332.042 69.092 333.81C70.2027 335.578 70.758 337.675 70.758 340.1C70.758 342.503 70.2027 344.599 69.092 346.39C67.9813 348.158 66.44 349.541 64.468 350.538C62.496 351.513 60.218 352 57.634 352H46.822ZM52.33 347.478H57.362C58.9487 347.478 60.32 347.183 61.476 346.594C62.6547 345.982 63.5613 345.121 64.196 344.01C64.8533 342.899 65.182 341.596 65.182 340.1C65.182 338.581 64.8533 337.278 64.196 336.19C63.5613 335.079 62.6547 334.229 61.476 333.64C60.32 333.028 58.9487 332.722 57.362 332.722H52.33V347.478ZM74.5378 352V333.708H79.8418V352H74.5378ZM77.1898 331.158C76.2152 331.158 75.4218 330.875 74.8098 330.308C74.1978 329.741 73.8918 329.039 73.8918 328.2C73.8918 327.361 74.1978 326.659 74.8098 326.092C75.4218 325.525 76.2152 325.242 77.1898 325.242C78.1645 325.242 78.9578 325.514 79.5698 326.058C80.1818 326.579 80.4878 327.259 80.4878 328.098C80.4878 328.982 80.1818 329.719 79.5698 330.308C78.9805 330.875 78.1872 331.158 77.1898 331.158ZM89.7284 352L82.0444 333.708H87.5184L93.9104 349.45H91.1904L97.8204 333.708H102.92L95.2024 352H89.7284ZM105.085 352V333.708H110.389V352H105.085ZM107.737 331.158C106.762 331.158 105.969 330.875 105.357 330.308C104.745 329.741 104.439 329.039 104.439 328.2C104.439 327.361 104.745 326.659 105.357 326.092C105.969 325.525 106.762 325.242 107.737 325.242C108.711 325.242 109.505 325.514 110.117 326.058C110.729 326.579 111.035 327.259 111.035 328.098C111.035 328.982 110.729 329.719 110.117 330.308C109.527 330.875 108.734 331.158 107.737 331.158ZM121.465 352.272C119.901 352.272 118.394 352.091 116.943 351.728C115.515 351.343 114.382 350.867 113.543 350.3L115.311 346.492C116.15 347.013 117.136 347.444 118.269 347.784C119.425 348.101 120.559 348.26 121.669 348.26C122.893 348.26 123.755 348.113 124.253 347.818C124.775 347.523 125.035 347.115 125.035 346.594C125.035 346.163 124.831 345.846 124.423 345.642C124.038 345.415 123.517 345.245 122.859 345.132C122.202 345.019 121.477 344.905 120.683 344.792C119.913 344.679 119.131 344.531 118.337 344.35C117.544 344.146 116.819 343.851 116.161 343.466C115.504 343.081 114.971 342.559 114.563 341.902C114.178 341.245 113.985 340.395 113.985 339.352C113.985 338.196 114.314 337.176 114.971 336.292C115.651 335.408 116.626 334.717 117.895 334.218C119.165 333.697 120.683 333.436 122.451 333.436C123.698 333.436 124.967 333.572 126.259 333.844C127.551 334.116 128.628 334.513 129.489 335.034L127.721 338.808C126.837 338.287 125.942 337.935 125.035 337.754C124.151 337.55 123.29 337.448 122.451 337.448C121.273 337.448 120.411 337.607 119.867 337.924C119.323 338.241 119.051 338.649 119.051 339.148C119.051 339.601 119.244 339.941 119.629 340.168C120.037 340.395 120.57 340.576 121.227 340.712C121.885 340.848 122.599 340.973 123.369 341.086C124.163 341.177 124.956 341.324 125.749 341.528C126.543 341.732 127.257 342.027 127.891 342.412C128.549 342.775 129.081 343.285 129.489 343.942C129.897 344.577 130.101 345.415 130.101 346.458C130.101 347.591 129.761 348.6 129.081 349.484C128.401 350.345 127.415 351.025 126.123 351.524C124.854 352.023 123.301 352.272 121.465 352.272ZM133.374 352V333.708H138.678V352H133.374ZM136.026 331.158C135.051 331.158 134.258 330.875 133.646 330.308C133.034 329.741 132.728 329.039 132.728 328.2C132.728 327.361 133.034 326.659 133.646 326.092C134.258 325.525 135.051 325.242 136.026 325.242C137 325.242 137.794 325.514 138.406 326.058C139.018 326.579 139.324 327.259 139.324 328.098C139.324 328.982 139.018 329.719 138.406 330.308C137.816 330.875 137.023 331.158 136.026 331.158ZM152.304 352.272C150.355 352.272 148.621 351.864 147.102 351.048C145.606 350.232 144.416 349.121 143.532 347.716C142.671 346.288 142.24 344.667 142.24 342.854C142.24 341.018 142.671 339.397 143.532 337.992C144.416 336.564 145.606 335.453 147.102 334.66C148.621 333.844 150.355 333.436 152.304 333.436C154.231 333.436 155.954 333.844 157.472 334.66C158.991 335.453 160.181 336.553 161.042 337.958C161.904 339.363 162.334 340.995 162.334 342.854C162.334 344.667 161.904 346.288 161.042 347.716C160.181 349.121 158.991 350.232 157.472 351.048C155.954 351.864 154.231 352.272 152.304 352.272ZM152.304 347.92C153.188 347.92 153.982 347.716 154.684 347.308C155.387 346.9 155.942 346.322 156.35 345.574C156.758 344.803 156.962 343.897 156.962 342.854C156.962 341.789 156.758 340.882 156.35 340.134C155.942 339.386 155.387 338.808 154.684 338.4C153.982 337.992 153.188 337.788 152.304 337.788C151.42 337.788 150.627 337.992 149.924 338.4C149.222 338.808 148.655 339.386 148.224 340.134C147.816 340.882 147.612 341.789 147.612 342.854C147.612 343.897 147.816 344.803 148.224 345.574C148.655 346.322 149.222 346.9 149.924 347.308C150.627 347.716 151.42 347.92 152.304 347.92ZM176.998 333.436C178.448 333.436 179.74 333.731 180.874 334.32C182.03 334.887 182.936 335.771 183.594 336.972C184.251 338.151 184.58 339.669 184.58 341.528V352H179.276V342.344C179.276 340.871 178.947 339.783 178.29 339.08C177.655 338.377 176.748 338.026 175.57 338.026C174.731 338.026 173.972 338.207 173.292 338.57C172.634 338.91 172.113 339.443 171.728 340.168C171.365 340.893 171.184 341.823 171.184 342.956V352H165.88V333.708H170.946V338.774L169.994 337.244C170.651 336.02 171.592 335.079 172.816 334.422C174.04 333.765 175.434 333.436 176.998 333.436Z" fill="#B8BCCC"/>
</svg>
